<svg width="24" height="24" viewBox="0 0 24 24" fill="none" xmlns="http://www.w3.org/2000/svg">
<path d="M20.7516 9.76032C20.5554 9.79315 20.3803 9.90256 20.2648 10.0645C20.1493 10.2264 20.1028 10.4276 20.1356 10.6238C20.2118 11.0786 20.25 11.5389 20.25 12C20.2518 14.0196 19.5095 15.969 18.165 17.4759C17.3285 16.2638 16.1524 15.3261 14.7844 14.7806C15.5192 14.2019 16.0554 13.4085 16.3184 12.5109C16.5814 11.6132 16.5582 10.6559 16.2519 9.77209C15.9457 8.88826 15.3716 8.12184 14.6096 7.57941C13.8475 7.03697 12.9354 6.74549 12 6.74549C11.0646 6.74549 10.1525 7.03697 9.39043 7.57941C8.62838 8.12184 8.05431 8.88826 7.74804 9.77209C7.44178 10.6559 7.41854 11.6132 7.68156 12.5109C7.94458 13.4085 8.48079 14.2019 9.21562 14.7806C7.84764 15.3261 6.67146 16.2638 5.83499 17.4759C4.78004 16.2872 4.09094 14.819 3.85053 13.2479C3.61013 11.6768 3.82867 10.0697 4.47987 8.61982C5.13107 7.16997 6.18721 5.93909 7.52129 5.07517C8.85538 4.21126 10.4106 3.75109 12 3.75001C12.4611 3.74994 12.9215 3.78819 13.3762 3.86439C13.5715 3.8952 13.7711 3.84766 13.9315 3.73209C14.0919 3.61653 14.2002 3.4423 14.2329 3.24731C14.2655 3.05231 14.2198 2.85232 14.1057 2.69083C13.9916 2.52935 13.8184 2.41944 13.6237 2.38501C11.587 2.04237 9.494 2.35589 7.64703 3.2803C5.80005 4.20471 4.29465 5.69218 3.34817 7.52795C2.40169 9.36371 2.06311 11.4528 2.38132 13.4935C2.69952 15.5342 3.65805 17.421 5.11851 18.8815C6.57896 20.342 8.46577 21.3005 10.5065 21.6187C12.5472 21.9369 14.6363 21.5983 16.4721 20.6518C18.3078 19.7054 19.7953 18.2 20.7197 16.353C21.6441 14.506 21.9576 12.413 21.615 10.3763C21.5822 10.1801 21.4728 10.005 21.3108 9.88948C21.1489 9.77397 20.9477 9.72751 20.7516 9.76032ZM8.99999 11.25C8.99999 10.6567 9.17594 10.0766 9.50559 9.5833C9.83523 9.08995 10.3038 8.70543 10.8519 8.47837C11.4001 8.25131 12.0033 8.1919 12.5853 8.30765C13.1672 8.42341 13.7018 8.70913 14.1213 9.12869C14.5409 9.54825 14.8266 10.0828 14.9423 10.6647C15.0581 11.2467 14.9987 11.8499 14.7716 12.3981C14.5446 12.9462 14.1601 13.4148 13.6667 13.7444C13.1734 14.0741 12.5933 14.25 12 14.25C11.2043 14.25 10.4413 13.9339 9.87867 13.3713C9.31606 12.8087 8.99999 12.0457 8.99999 11.25ZM6.94499 18.5156C7.48756 17.6671 8.235 16.9688 9.11842 16.4851C10.0018 16.0014 10.9928 15.7478 12 15.7478C13.0072 15.7478 13.9981 16.0014 14.8816 16.4851C15.765 16.9688 16.5124 17.6671 17.055 18.5156C15.6097 19.6397 13.831 20.2499 12 20.2499C10.169 20.2499 8.3903 19.6397 6.94499 18.5156ZM22.2806 4.28064L19.2806 7.28064C19.211 7.35037 19.1282 7.40569 19.0372 7.44343C18.9461 7.48117 18.8486 7.5006 18.75 7.5006C18.6514 7.5006 18.5538 7.48117 18.4628 7.44343C18.3717 7.40569 18.289 7.35037 18.2194 7.28064L16.7194 5.78064C16.6497 5.71095 16.5944 5.62823 16.5567 5.53718C16.519 5.44614 16.4996 5.34856 16.4996 5.25001C16.4996 5.15146 16.519 5.05388 16.5567 4.96284C16.5944 4.87179 16.6497 4.78907 16.7194 4.71939C16.8601 4.57866 17.051 4.49959 17.25 4.49959C17.3485 4.49959 17.4461 4.519 17.5372 4.55672C17.6282 4.59443 17.7109 4.6497 17.7806 4.71939L18.75 5.6897L21.2194 3.21939C21.289 3.1497 21.3718 3.09443 21.4628 3.05672C21.5539 3.019 21.6514 2.99959 21.75 2.99959C21.8485 2.99959 21.9461 3.019 22.0372 3.05672C22.1282 3.09443 22.2109 3.1497 22.2806 3.21939C22.3503 3.28907 22.4056 3.37179 22.4433 3.46284C22.481 3.55388 22.5004 3.65146 22.5004 3.75001C22.5004 3.84856 22.481 3.94614 22.4433 4.03718C22.4056 4.12823 22.3503 4.21095 22.2806 4.28064Z" fill="white"/>
</svg>
