<svg width="149" height="24" viewBox="0 0 149 24" fill="none" xmlns="http://www.w3.org/2000/svg">
<path d="M1.43466 4.45455H4.65909L8.97727 14.9943H9.14773L13.4659 4.45455H16.6903V19H14.1619V9.0071H14.027L10.0071 18.9574H8.1179L4.09801 8.9858H3.96307V19H1.43466V4.45455ZM24.2045 19.2131C23.1392 19.2131 22.2159 18.9787 21.4347 18.5099C20.6534 18.0412 20.0473 17.3854 19.6165 16.5426C19.1903 15.6998 18.9773 14.715 18.9773 13.5881C18.9773 12.4612 19.1903 11.474 19.6165 10.6264C20.0473 9.77888 20.6534 9.12074 21.4347 8.65199C22.2159 8.18324 23.1392 7.94886 24.2045 7.94886C25.2699 7.94886 26.1932 8.18324 26.9744 8.65199C27.7557 9.12074 28.3594 9.77888 28.7855 10.6264C29.2164 11.474 29.4318 12.4612 29.4318 13.5881C29.4318 14.715 29.2164 15.6998 28.7855 16.5426C28.3594 17.3854 27.7557 18.0412 26.9744 18.5099C26.1932 18.9787 25.2699 19.2131 24.2045 19.2131ZM24.2188 17.1534C24.7964 17.1534 25.2794 16.9948 25.6676 16.6776C26.0559 16.3556 26.3447 15.9247 26.5341 15.3849C26.7282 14.8452 26.8253 14.2438 26.8253 13.581C26.8253 12.9134 26.7282 12.3097 26.5341 11.7699C26.3447 11.2254 26.0559 10.7921 25.6676 10.4702C25.2794 10.1482 24.7964 9.98722 24.2188 9.98722C23.6269 9.98722 23.1345 10.1482 22.7415 10.4702C22.3532 10.7921 22.062 11.2254 21.8679 11.7699C21.6785 12.3097 21.5838 12.9134 21.5838 13.581C21.5838 14.2438 21.6785 14.8452 21.8679 15.3849C22.062 15.9247 22.3532 16.3556 22.7415 16.6776C23.1345 16.9948 23.6269 17.1534 24.2188 17.1534ZM34.185 12.608V19H31.614V8.09091H34.0714V9.9446H34.1992C34.4502 9.33381 34.8503 8.84848 35.3995 8.48864C35.9535 8.12879 36.6377 7.94886 37.4521 7.94886C38.2049 7.94886 38.8607 8.10985 39.4194 8.43182C39.9828 8.75379 40.4184 9.22017 40.7262 9.83097C41.0387 10.4418 41.1926 11.1828 41.1879 12.054V19H38.6168V12.4517C38.6168 11.7225 38.4274 11.152 38.0487 10.7401C37.6746 10.3281 37.1561 10.1222 36.4933 10.1222C36.0434 10.1222 35.6433 10.2216 35.293 10.4205C34.9473 10.6146 34.6751 10.8963 34.4762 11.2656C34.2821 11.6349 34.185 12.0824 34.185 12.608ZM46.3725 12.608V19H43.8015V8.09091H46.2589V9.9446H46.3867C46.6377 9.33381 47.0378 8.84848 47.587 8.48864C48.141 8.12879 48.8252 7.94886 49.6396 7.94886C50.3924 7.94886 51.0482 8.10985 51.6069 8.43182C52.1703 8.75379 52.6059 9.22017 52.9137 9.83097C53.2262 10.4418 53.3801 11.1828 53.3754 12.054V19H50.8043V12.4517C50.8043 11.7225 50.6149 11.152 50.2362 10.7401C49.8621 10.3281 49.3436 10.1222 48.6808 10.1222C48.2309 10.1222 47.8308 10.2216 47.4805 10.4205C47.1348 10.6146 46.8626 10.8963 46.6637 11.2656C46.4696 11.6349 46.3725 12.0824 46.3725 12.608ZM55.989 19V8.09091H58.56V19H55.989ZM57.2816 6.54261C56.8744 6.54261 56.524 6.40767 56.2305 6.13778C55.9369 5.86316 55.7901 5.53409 55.7901 5.15057C55.7901 4.76231 55.9369 4.43324 56.2305 4.16335C56.524 3.88873 56.8744 3.75142 57.2816 3.75142C57.6935 3.75142 58.0439 3.88873 58.3327 4.16335C58.6263 4.43324 58.7731 4.76231 58.7731 5.15057C58.7731 5.53409 58.6263 5.86316 58.3327 6.13778C58.0439 6.40767 57.6935 6.54261 57.2816 6.54261ZM66.6513 8.09091V10.0795H60.38V8.09091H66.6513ZM61.9283 5.47727H64.4993V15.7188C64.4993 16.0644 64.5514 16.3295 64.6555 16.5142C64.7644 16.6941 64.9065 16.8172 65.0817 16.8835C65.2569 16.9498 65.451 16.983 65.6641 16.983C65.825 16.983 65.9718 16.9711 66.1044 16.9474C66.2417 16.9238 66.3459 16.9025 66.4169 16.8835L66.8501 18.8935C66.7128 18.9408 66.5163 18.9929 66.2607 19.0497C66.0097 19.1065 65.7019 19.1397 65.3374 19.1491C64.6934 19.1681 64.1134 19.071 63.5973 18.858C63.0812 18.6402 62.6716 18.304 62.3686 17.8494C62.0703 17.3949 61.9235 16.8267 61.9283 16.1449V5.47727ZM73.5138 19.2131C72.4201 19.2131 71.4755 18.9858 70.68 18.5312C69.8893 18.072 69.2809 17.4233 68.8548 16.5852C68.4286 15.7424 68.2156 14.7505 68.2156 13.6094C68.2156 12.4872 68.4286 11.5024 68.8548 10.6548C69.2856 9.80256 69.887 9.13968 70.6587 8.66619C71.4305 8.18797 72.3372 7.94886 73.3789 7.94886C74.0513 7.94886 74.6857 8.05777 75.2823 8.27557C75.8836 8.48864 76.4139 8.82008 76.8732 9.26989C77.3372 9.7197 77.7018 10.2926 77.967 10.9886C78.2321 11.6799 78.3647 12.5038 78.3647 13.4602V14.2486H69.4229V12.5156H75.9002C75.8955 12.0232 75.7889 11.5852 75.5806 11.2017C75.3723 10.8134 75.0811 10.508 74.707 10.2855C74.3377 10.063 73.9068 9.9517 73.4144 9.9517C72.8888 9.9517 72.4272 10.0795 72.0295 10.3352C71.6317 10.5862 71.3216 10.9176 71.0991 11.3295C70.8813 11.7367 70.77 12.1842 70.7653 12.6719V14.1847C70.7653 14.8191 70.8813 15.3636 71.1133 15.8182C71.3453 16.268 71.6696 16.6136 72.0863 16.8551C72.503 17.0919 72.9906 17.2102 73.5494 17.2102C73.9234 17.2102 74.262 17.1581 74.565 17.054C74.868 16.9451 75.1308 16.7865 75.3533 16.5781C75.5759 16.3698 75.744 16.1117 75.8576 15.804L78.2582 16.0739C78.1067 16.7083 77.8178 17.2623 77.3917 17.7358C76.9703 18.2045 76.4305 18.5691 75.7724 18.8295C75.1142 19.0852 74.3614 19.2131 73.5138 19.2131Z" fill="white"/>
<path d="M87.4347 19V4.45455H90.0696V10.6122H96.8097V4.45455H99.4517V19H96.8097V12.821H90.0696V19H87.4347ZM106.962 19.2131C105.897 19.2131 104.974 18.9787 104.192 18.5099C103.411 18.0412 102.805 17.3854 102.374 16.5426C101.948 15.6998 101.735 14.715 101.735 13.5881C101.735 12.4612 101.948 11.474 102.374 10.6264C102.805 9.77888 103.411 9.12074 104.192 8.65199C104.974 8.18324 105.897 7.94886 106.962 7.94886C108.028 7.94886 108.951 8.18324 109.732 8.65199C110.513 9.12074 111.117 9.77888 111.543 10.6264C111.974 11.474 112.19 12.4612 112.19 13.5881C112.19 14.715 111.974 15.6998 111.543 16.5426C111.117 17.3854 110.513 18.0412 109.732 18.5099C108.951 18.9787 108.028 19.2131 106.962 19.2131ZM106.977 17.1534C107.554 17.1534 108.037 16.9948 108.425 16.6776C108.814 16.3556 109.103 15.9247 109.292 15.3849C109.486 14.8452 109.583 14.2438 109.583 13.581C109.583 12.9134 109.486 12.3097 109.292 11.7699C109.103 11.2254 108.814 10.7921 108.425 10.4702C108.037 10.1482 107.554 9.98722 106.977 9.98722C106.385 9.98722 105.892 10.1482 105.499 10.4702C105.111 10.7921 104.82 11.2254 104.626 11.7699C104.436 12.3097 104.342 12.9134 104.342 13.581C104.342 14.2438 104.436 14.8452 104.626 15.3849C104.82 15.9247 105.111 16.3556 105.499 16.6776C105.892 16.9948 106.385 17.1534 106.977 17.1534ZM121.325 14.4119V8.09091H123.896V19H121.403V17.0611H121.289C121.043 17.6719 120.638 18.1714 120.075 18.5597C119.516 18.9479 118.827 19.142 118.008 19.142C117.293 19.142 116.661 18.9834 116.112 18.6662C115.567 18.3442 115.141 17.8778 114.833 17.267C114.526 16.6515 114.372 15.9081 114.372 15.0369V8.09091H116.943V14.6392C116.943 15.3305 117.132 15.8797 117.511 16.2869C117.89 16.6941 118.387 16.8977 119.002 16.8977C119.381 16.8977 119.748 16.8054 120.103 16.6207C120.458 16.4361 120.75 16.1615 120.977 15.7969C121.209 15.4276 121.325 14.9659 121.325 14.4119ZM135.162 10.9744L132.818 11.2301C132.752 10.9934 132.636 10.7708 132.47 10.5625C132.309 10.3542 132.091 10.1861 131.817 10.0582C131.542 9.9304 131.206 9.86648 130.808 9.86648C130.273 9.86648 129.823 9.98248 129.459 10.2145C129.099 10.4465 128.921 10.7472 128.926 11.1165C128.921 11.4337 129.037 11.6918 129.274 11.8906C129.516 12.0895 129.913 12.2528 130.467 12.3807L132.328 12.7784C133.36 13.0009 134.127 13.3537 134.629 13.8366C135.136 14.3196 135.392 14.9517 135.396 15.733C135.392 16.4195 135.19 17.0256 134.793 17.5511C134.4 18.072 133.853 18.4792 133.152 18.7727C132.451 19.0663 131.646 19.2131 130.737 19.2131C129.402 19.2131 128.327 18.9337 127.513 18.375C126.698 17.8116 126.213 17.0279 126.057 16.0241L128.564 15.7827C128.678 16.2751 128.919 16.6468 129.288 16.8977C129.658 17.1487 130.138 17.2741 130.73 17.2741C131.341 17.2741 131.831 17.1487 132.2 16.8977C132.574 16.6468 132.761 16.3366 132.761 15.9673C132.761 15.6548 132.641 15.3968 132.399 15.1932C132.162 14.9896 131.793 14.8333 131.291 14.7244L129.43 14.3338C128.384 14.116 127.61 13.7491 127.108 13.233C126.606 12.7121 126.357 12.054 126.362 11.2585C126.357 10.5862 126.54 10.0038 126.909 9.51136C127.283 9.0142 127.802 8.63068 128.464 8.3608C129.132 8.08617 129.902 7.94886 130.773 7.94886C132.051 7.94886 133.057 8.22112 133.791 8.76562C134.53 9.31013 134.987 10.0464 135.162 10.9744ZM142.346 19.2131C141.252 19.2131 140.308 18.9858 139.512 18.5312C138.721 18.072 138.113 17.4233 137.687 16.5852C137.261 15.7424 137.048 14.7505 137.048 13.6094C137.048 12.4872 137.261 11.5024 137.687 10.6548C138.118 9.80256 138.719 9.13968 139.491 8.66619C140.263 8.18797 141.169 7.94886 142.211 7.94886C142.883 7.94886 143.518 8.05777 144.114 8.27557C144.716 8.48864 145.246 8.82008 145.705 9.26989C146.169 9.7197 146.534 10.2926 146.799 10.9886C147.064 11.6799 147.197 12.5038 147.197 13.4602V14.2486H138.255V12.5156H144.732C144.728 12.0232 144.621 11.5852 144.413 11.2017C144.204 10.8134 143.913 10.508 143.539 10.2855C143.17 10.063 142.739 9.9517 142.246 9.9517C141.721 9.9517 141.259 10.0795 140.862 10.3352C140.464 10.5862 140.154 10.9176 139.931 11.3295C139.713 11.7367 139.602 12.1842 139.597 12.6719V14.1847C139.597 14.8191 139.713 15.3636 139.945 15.8182C140.177 16.268 140.502 16.6136 140.918 16.8551C141.335 17.0919 141.823 17.2102 142.381 17.2102C142.755 17.2102 143.094 17.1581 143.397 17.054C143.7 16.9451 143.963 16.7865 144.185 16.5781C144.408 16.3698 144.576 16.1117 144.69 15.804L147.09 16.0739C146.939 16.7083 146.65 17.2623 146.224 17.7358C145.802 18.2045 145.263 18.5691 144.604 18.8295C143.946 19.0852 143.193 19.2131 142.346 19.2131Z" fill="white"/>
</svg>
