<svg width="206" height="100" viewBox="0 0 206 100" fill="none" xmlns="http://www.w3.org/2000/svg">
<g clip-path="url(#clip0_190_65)">
<path d="M56.4897 55.0582C56.4468 55.0368 56.4468 55.0153 56.4468 54.9938L56.1892 52.3533C56.1892 52.2889 56.2321 52.2245 56.275 52.2245C56.2965 52.2245 56.318 52.2459 56.318 52.2459C56.9405 52.6109 59.3664 53.8131 63.3809 53.8131C65.9785 53.8131 67.5886 53.169 67.5886 52.2245C67.5886 51.559 66.1717 50.9364 62.6725 50.9364C56.1033 50.9364 55.8242 48.1885 55.8242 47.201C55.8242 43.9379 59.7958 43.1436 63.2521 43.1436C66.3435 43.1436 68.5117 44.0667 68.8982 44.2384C68.9411 44.2384 68.9411 44.2814 68.9411 44.3028L69.1128 46.8575C69.1343 46.9004 69.0699 46.9648 69.027 46.9648C69.0055 46.9648 68.984 46.9434 68.984 46.9434C68.1897 46.4496 65.8926 45.505 63.2521 45.505C58.9371 45.505 58.2072 46.514 58.2072 47.201C58.2072 48.167 59.9246 48.5749 62.6939 48.5749C65.1842 48.5749 70.1218 48.854 70.1218 52.3103C70.1218 53.1046 69.5637 56.1745 63.4024 56.1745C59.3449 56.196 56.8761 55.23 56.4897 55.0582Z" fill="#C7C7C7"/>
<path d="M131.778 55.9171C131.606 55.9171 131.477 55.7883 131.477 55.6166V43.7019C131.477 43.5302 131.606 43.4014 131.778 43.4014H138.089C142.919 43.4014 145.775 45.8702 145.775 49.6485C145.775 52.7184 143.885 55.8957 138.089 55.8957L131.778 55.9171ZM133.839 53.2766C133.839 53.4269 133.967 53.5771 134.118 53.5771H138.068C141.91 53.5771 143.392 52.4823 143.392 49.6915C143.392 46.321 140.043 45.8058 138.068 45.8058H134.118C133.967 45.8058 133.839 45.9346 133.839 46.1063V53.2766Z" fill="#C7C7C7"/>
<path d="M149.982 49.6698C149.982 45.0327 154.641 43.165 157.775 43.165C161.146 43.165 165.59 45.2474 165.59 49.6698C165.59 53.5555 162.241 56.196 157.775 56.196C154.555 56.196 149.982 53.8346 149.982 49.6698ZM152.344 49.6698C152.344 51.9669 154.77 53.8346 157.775 53.8346C160.781 53.8346 163.228 51.9669 163.228 49.6698C163.228 47.3942 160.781 45.5265 157.775 45.5265C154.77 45.5265 152.344 47.3942 152.344 49.6698Z" fill="#C7C7C7"/>
<path d="M85.0848 43.4229H75.4887C75.4243 43.4229 75.3599 43.4873 75.3599 43.5731V45.5911V45.634C75.3599 45.6984 75.4243 45.7628 75.5101 45.7628H75.6819H77.8716H78.258H85.1063C85.9006 45.7628 86.652 46.6001 86.652 47.5017C86.6734 48.3605 85.9221 49.0689 85.0848 49.0689H78.2795H77.8931H76.4333H75.5316C75.4672 49.0689 75.4028 49.1333 75.4028 49.2192V49.8417V55.7669C75.4028 55.8313 75.4672 55.8957 75.5316 55.8957H77.614C77.6784 55.8957 77.7428 55.8313 77.7428 55.7669V51.5806C77.7428 51.4948 77.7857 51.4518 77.8716 51.4518H85.0419C87.2101 51.4518 88.992 49.7344 89.0134 47.5876C89.0134 45.3335 87.2101 43.4229 85.0848 43.4229Z" fill="#C7C7C7"/>
<path d="M107.24 53.5557H97.3862C97.2788 53.5557 97.193 53.4483 97.193 53.341V50.9795C97.193 50.9151 97.2359 50.8507 97.3218 50.8507H104.02C104.084 50.8507 104.149 50.8078 104.149 50.7434L104.814 48.6181C104.836 48.5537 104.771 48.4678 104.685 48.4678H97.3003C97.2359 48.4678 97.1715 48.4034 97.1715 48.339V45.9775C97.1715 45.8702 97.2574 45.7843 97.3647 45.7843H105.48H106.553C106.596 45.7843 106.66 45.7414 106.682 45.6984L107.347 43.5516C107.39 43.4872 107.304 43.4014 107.218 43.4014H104.793H102.71H94.9818C94.853 43.4014 94.7671 43.4872 94.7671 43.5946V55.7239C94.7671 55.8313 94.853 55.9171 94.9818 55.9171H106.531C106.574 55.9171 106.639 55.8742 106.66 55.8313L107.326 53.7059C107.39 53.6415 107.326 53.5557 107.24 53.5557Z" fill="#C7C7C7"/>
<path d="M125.702 53.5557H115.849C115.741 53.5557 115.655 53.4483 115.655 53.341V50.9795C115.655 50.9151 115.698 50.8507 115.784 50.8507H122.482C122.547 50.8507 122.611 50.8078 122.611 50.7434L123.276 48.6181C123.298 48.5537 123.234 48.4678 123.148 48.4678H115.763C115.698 48.4678 115.634 48.4034 115.634 48.339V45.9775C115.634 45.8702 115.72 45.7843 115.827 45.7843H123.942H125.015C125.058 45.7843 125.123 45.7414 125.144 45.6984L125.81 43.5516C125.853 43.4872 125.767 43.4014 125.681 43.4014H123.255H121.173H113.444C113.315 43.4014 113.229 43.4872 113.229 43.5946V55.7239C113.229 55.8313 113.315 55.9171 113.444 55.9171H124.994C125.037 55.9171 125.101 55.8742 125.123 55.8313L125.788 53.7059C125.853 53.6415 125.788 53.5557 125.702 53.5557Z" fill="#C7C7C7"/>
<path d="M182.871 53.62H181.797H181.196H180.359H177.568C173.683 53.62 172.18 52.5037 172.18 49.6914C172.18 46.278 175.572 45.7628 177.568 45.7628H180.359H181.196H181.797H182.205C182.248 45.7628 182.313 45.7413 182.334 45.6769L183 43.5087C183.043 43.4443 182.957 43.3584 182.871 43.3584H181.497H180.466H179.779H177.568C172.674 43.3584 169.797 45.8487 169.797 49.6914C169.797 52.8043 171.708 56.0244 177.568 56.0244H179.779H181.497H182.914C182.978 56.0244 183 56.003 183 55.9386V53.7488C183 53.663 182.957 53.62 182.871 53.62Z" fill="#C7C7C7"/>
<path d="M23.1725 53.04H29.2694H32.0602L29.3768 59.8024C29.2694 60.1244 29.3982 60.3391 29.6988 60.3391H35.9459C36.225 60.3391 36.5685 60.0814 36.6973 59.8024L39.3593 53.0185H46.8945C47.238 53.0185 47.5815 52.7824 47.6889 52.5248L49.8571 47.029C49.943 46.7714 49.7712 46.5782 49.4278 46.5782H41.8925L44.6619 39.5367C44.7692 39.2147 44.6404 39 44.3399 39H38.0712C37.7922 39 37.4487 39.2576 37.3199 39.5367L34.5505 46.5352L34.529 46.5782H34.4002H25.5125C25.2979 46.5782 25.2764 46.8787 25.4696 46.9431L33.4342 48.4029C33.6274 48.4459 33.6274 48.7464 33.4127 48.7679L24.525 49.2831C24.3103 49.2831 24.2889 49.5837 24.4821 49.6481L32.2535 50.7L32.5325 50.7429C32.7472 50.7644 32.7472 51.0649 32.554 51.1079L32.2535 51.1723L23.1296 52.675C22.9364 52.7394 22.9793 52.997 23.1725 53.04Z" fill="#C7C7C7"/>
</g>
<defs>
<clipPath id="clip0_190_65">
<rect width="160" height="21.3605" fill="white" transform="translate(23 39)"/>
</clipPath>
</defs>
</svg>
