<svg width="206" height="100" viewBox="0 0 206 100" fill="none" xmlns="http://www.w3.org/2000/svg">
<path d="M34.2248 37.9865H25.1733V36.4156H45.0715V37.9865H36.0201V63.1585H34.2248V37.9865Z" fill="#CFCFCF"/>
<path d="M50.0899 63.1585V36.4156H62.5076V37.9865H51.8852V47.8234H61.4977V49.3569H51.8852V61.5876H62.919V63.1585H50.0899Z" fill="#CFCFCF"/>
<path d="M71.0786 40.6795L71.1534 43.8587V63.1585H69.3581V36.1912H70.1809L87.7976 56.5008C88.9945 57.9221 89.917 59.0567 90.5654 59.9045C90.4656 58.7076 90.4158 57.3361 90.4158 55.7902V36.4156H92.2111V63.3829H91.3882L73.435 42.6993C72.1882 41.278 71.3903 40.3304 71.0412 39.8567L71.0786 40.6795Z" fill="#CFCFCF"/>
<path d="M102.759 53.8826L98.9061 63.1585H96.9986L108.257 36.2286H109.304L120.6 63.1585H118.58L114.727 53.8826H102.759ZM108.668 39.2208C108.643 39.2458 108.593 39.3954 108.519 39.6697C108.17 40.7419 107.833 41.652 107.509 42.4L103.394 52.3491H114.092L109.977 42.4374C109.105 40.5424 108.668 39.4702 108.668 39.2208Z" fill="#CFCFCF"/>
<path d="M127.111 40.6795L127.186 43.8587V63.1585H125.39V36.1912H126.213L143.83 56.5008C145.027 57.9221 145.949 59.0567 146.598 59.9045C146.498 58.7076 146.448 57.3361 146.448 55.7902V36.4156H148.243V63.3829H147.421L129.467 42.6993C128.221 41.278 127.423 40.3304 127.074 39.8567L127.111 40.6795Z" fill="#CFCFCF"/>
<path d="M168.852 37.6125C165.586 37.6125 162.918 38.7845 160.848 41.1284C158.778 43.4723 157.744 46.3523 157.744 49.7684C157.744 53.1595 158.916 56.0395 161.259 58.4084C163.603 60.7772 166.458 61.9616 169.825 61.9616C172.717 61.9616 175.123 61.5626 177.043 60.7647V49.7684H178.839V61.5876C176.669 62.9341 173.627 63.6073 169.712 63.6073C165.823 63.6073 162.531 62.2733 159.838 59.6052C157.145 56.9123 155.799 53.6333 155.799 49.7684C155.799 45.8785 157.021 42.612 159.464 39.9689C161.908 37.3008 165.037 35.9668 168.852 35.9668C171.844 35.9668 174.874 36.4655 177.941 37.4629L177.455 38.959C174.463 38.0613 171.595 37.6125 168.852 37.6125Z" fill="#CFCFCF"/>
</svg>
