<svg width="206" height="100" viewBox="0 0 206 100" fill="none" xmlns="http://www.w3.org/2000/svg">
<g clip-path="url(#clip0_190_86)">
<path d="M28.6648 60.957C28.6967 57.9864 29.7349 54.9358 31.7792 51.8055C33.8554 48.6432 36.4268 45.8802 39.4933 43.5164C42.5598 41.1207 45.9616 39.1722 49.6989 37.671C53.4362 36.1377 56.9498 35.3711 60.2399 35.3711C62.1245 35.3711 63.8654 35.7704 65.4625 36.5689C67.0916 37.3356 67.9061 38.5174 67.9061 40.1145C67.9061 41.6797 66.9957 43.3887 65.175 45.2413C63.3862 47.062 61.2301 48.6272 58.7067 49.9369C56.2152 51.2146 54.0271 51.8534 52.1425 51.8534C51.28 51.8534 50.3857 51.6138 49.4593 51.1347C48.533 50.6556 48.0698 49.9848 48.0698 49.1223C48.0698 48.6432 48.4531 48.2279 49.2198 47.8766C51.9349 46.7905 53.9792 45.7364 55.3527 44.7143C55.6402 44.3948 55.8478 44.2351 55.9756 44.2351C56.1353 44.2351 56.2152 44.3629 56.2152 44.6184C56.2152 45.0656 55.6721 45.5927 54.5861 46.1996C53.8195 46.7746 53.4362 47.094 53.4362 47.1579C53.4362 47.2217 53.4521 47.2537 53.4841 47.2537C54.1229 47.2537 56.0714 46.0239 59.3295 43.5643C62.5877 41.1048 64.2167 39.5236 64.2167 38.8209C64.2167 38.3737 63.7855 38.1501 62.9231 38.1501C59.8566 38.1501 56.7422 38.8848 53.5799 40.3541C50.4176 41.7915 47.6067 43.6122 45.1471 45.8163C42.7195 47.9884 40.5154 50.3042 38.535 52.7638C36.5546 55.1914 35.0373 57.4593 33.9832 59.5675C32.9291 61.6438 32.4021 63.2569 32.4021 64.4068C32.4021 65.1095 32.7375 65.4609 33.4082 65.4609C33.9832 65.4609 35.1331 65.2053 36.858 64.6943C38.5829 64.1832 41.0744 63.161 44.3326 61.6278C47.6226 60.0946 50.7849 58.2579 53.8195 56.1177C54.0431 55.9261 54.1868 55.8302 54.2507 55.8302C54.3465 55.8302 54.3944 55.8941 54.3944 56.0219C54.3944 56.1497 54.107 56.6927 53.532 57.651C52.989 58.6092 52.1425 59.7751 50.9926 61.1487C49.8746 62.5222 48.5969 63.8638 47.1595 65.1734C45.7221 66.4511 43.9812 67.5531 41.9369 68.4794C39.9245 69.4058 38.0559 69.8689 36.331 69.8689C34.638 69.8689 33.2964 69.5655 32.3062 68.9586C31.348 68.3517 30.6452 67.601 30.198 66.7066C29.2717 64.9179 28.7766 63.3048 28.7127 61.8674L28.6648 60.957Z" fill="#C7C7C7"/>
<path d="M55.8195 65.6525C56.8417 65.6525 58.1034 64.9818 59.6047 63.6402C61.106 62.2986 61.8886 61.3723 61.9524 60.8612C61.5691 60.5417 61.1539 59.9668 60.7067 59.1363C60.2914 58.2738 60.0678 57.8426 60.0359 57.8426C59.0457 58.7689 58.1673 59.839 57.4006 61.0528C56.1868 63.0971 55.5799 64.5026 55.5799 65.2692C55.5799 65.5248 55.6598 65.6525 55.8195 65.6525ZM66.1688 53.9137C65.8494 53.9137 65.1786 54.4088 64.1565 55.399C63.1663 56.3892 62.6711 57.076 62.6711 57.4593C62.6711 57.5551 62.767 57.7468 62.9586 58.0343C63.1503 58.3217 63.294 58.4655 63.3899 58.4655C63.9329 58.4655 64.5398 57.8107 65.2106 56.501C65.9133 55.1914 66.2647 54.4407 66.2647 54.2491C66.2647 54.0255 66.2327 53.9137 66.1688 53.9137ZM66.2647 60.0946C67.1591 60.0946 68.5486 59.5515 70.4332 58.4655C72.3497 57.3794 74.0267 56.2934 75.4641 55.2074L77.6202 53.5304C77.9077 53.754 78.0514 54.0255 78.0514 54.3449C78.0514 54.6643 77.9077 54.9518 77.6202 55.2074C72.3497 60.0946 68.3569 62.5382 65.6418 62.5382C65.4501 62.5382 65.1627 62.5062 64.7793 62.4423C61.1699 66.6268 58.0714 68.719 55.4841 68.719C53.7592 68.4635 52.6732 67.8566 52.226 66.8983C51.9704 66.4192 51.8427 65.8123 51.8427 65.0776C51.8427 62.9694 53.0565 60.4619 55.4841 57.5551C57.9117 54.6164 60.9622 52.4603 64.6356 51.0868C64.955 51.0868 65.1946 51.1666 65.3543 51.3264C65.514 51.4541 65.6578 51.534 65.7855 51.5659C65.9133 51.5659 66.073 51.502 66.2647 51.3743C66.4883 51.2146 66.7757 51.1347 67.1271 51.1347C67.4785 51.1028 67.8458 51.2944 68.2291 51.7097C68.7402 52.1249 68.9958 52.636 68.9958 53.2429C68.9958 55.0317 68.0854 57.3156 66.2647 60.0946Z" fill="#C7C7C7"/>
<path d="M70.1618 58.8009C71.9186 57.5871 73.7553 56.2774 75.6718 54.872C74.6497 54.1692 73.9949 53.4825 73.7074 52.8117C73.6116 52.5881 73.5636 52.4284 73.5636 52.3325C73.5636 51.6937 73.7713 51.2784 74.1865 51.0868C74.6018 50.8632 75.2726 50.7514 76.1989 50.7514C76.5503 50.7514 77.5884 51.1826 79.3133 52.0451C81.0382 52.9075 82.1242 53.3387 82.5714 53.3387C83.0506 53.3387 83.7054 53.211 84.5359 52.9554C85.3664 52.6679 86.0212 52.5242 86.5003 52.5242C87.0114 52.5242 87.3788 52.636 87.6023 52.8596C88.4009 53.9137 88.8002 54.5525 88.8002 54.7761C88.8002 54.9997 88.6884 55.1914 88.4648 55.3511C88.2731 55.4789 87.6183 55.9261 86.5003 56.6927C85.4143 57.4593 84.3442 58.2419 83.2901 59.0405C82.236 59.839 81.2458 60.7334 80.3195 61.7236C79.3931 62.7138 78.93 63.5124 78.93 64.1193C78.93 64.2151 79.0098 64.263 79.1695 64.263C80.8944 64.263 86.708 60.7653 96.6101 53.7699C96.8337 53.7699 96.9455 53.9776 96.9455 54.3928C96.9455 54.7761 95.6838 56.1497 93.1603 58.5134C90.6369 60.8452 87.778 63.1451 84.5838 65.413C81.4215 67.6489 79.1216 68.7669 77.6842 68.7669C75.4483 68.7669 74.3303 67.6489 74.3303 65.413C74.3303 64.1992 74.7295 63.0333 75.5281 61.9153C76.3586 60.7653 78.0835 59.2321 80.7028 57.3156C80.1598 57.3156 79.4251 57.1878 78.4988 56.9323C77.5724 56.6448 76.9815 56.3094 76.7259 55.9261C75.8954 56.6607 74.458 57.8905 72.4137 59.6154C71.9346 59.9668 71.3117 60.1425 70.5451 60.1425C69.7785 60.1425 69.3952 60.0307 69.3952 59.8071C69.3952 59.5515 69.6507 59.2161 70.1618 58.8009Z" fill="#C7C7C7"/>
<path d="M98.7681 51.9013C99.0236 51.9013 99.4389 52.0291 100.014 52.2846C100.621 52.5402 100.924 52.8276 100.924 53.1471C100.924 53.3707 100.844 53.5943 100.685 53.8179L97.0911 58.8009C96.6759 59.312 96.4683 59.5994 96.4683 59.6633C96.4683 59.7272 96.4842 59.7592 96.5162 59.7592L96.7557 59.6154C100.461 57.0281 103.512 54.7602 105.907 52.8117C106.354 52.4923 106.722 52.3325 107.009 52.3325C107.329 52.3325 107.536 52.3645 107.632 52.4284L108.974 52.8117C109.293 52.9714 109.453 53.179 109.453 53.4346C109.453 53.6901 109.389 53.8977 109.261 54.0574C108.654 54.7282 107.952 55.4948 107.153 56.3573C106.386 57.1878 105.811 57.8266 105.428 58.2738C105.045 58.6891 104.614 59.1682 104.134 59.7112C103.655 60.2543 103.304 60.6695 103.08 60.957C102.889 61.2445 102.665 61.5799 102.41 61.9632C102.154 62.3146 101.978 62.618 101.882 62.8735C101.691 63.6082 101.595 64.2471 101.595 64.7901C101.595 65.0776 101.771 65.2213 102.122 65.2213C102.505 65.2213 103.176 64.9977 104.134 64.5505C105.125 64.1033 106.291 63.4166 107.632 62.4902C109.006 61.5639 110.81 60.2543 113.046 58.5613C115.314 56.8364 117.295 55.383 118.988 54.2012C119.275 54.4248 119.419 54.6963 119.419 55.0157C119.419 55.3351 119.275 55.6226 118.988 55.8782C117.966 56.8684 116.672 58.1141 115.107 59.6154C113.541 61.0848 111.146 63.0652 107.92 65.5567C104.725 68.0482 102.489 69.294 101.212 69.294C98.7521 69.294 97.5223 67.9843 97.5223 65.3651C97.5223 64.3748 97.9057 63.3367 98.6723 62.2507L100.733 59.4238C100.924 59.1363 101.02 58.9766 101.02 58.9446C101.02 58.8807 100.924 58.9287 100.733 59.0884C95.1746 63.72 91.629 66.4351 90.0957 67.2337C89.8402 67.3934 89.5208 67.4733 89.1375 67.4733C88.0834 67.4733 87.5563 66.9941 87.5563 66.0359C87.5563 65.7164 87.6362 65.4289 87.7959 65.1734C90.1596 63.0013 91.8206 61.2285 92.7789 59.855C93.5455 59.0884 94.3441 58.0183 95.1746 56.6448C96.037 55.2712 96.7557 54.1373 97.3307 53.2429C97.9376 52.3485 98.4167 51.9013 98.7681 51.9013Z" fill="#C7C7C7"/>
<path d="M125.167 53.2908C124.336 53.2908 122.931 54.1533 120.95 55.8782C118.97 57.5711 117.98 58.6092 117.98 58.9925C117.98 59.0564 118.028 59.0884 118.123 59.0884C118.826 59.0884 120.216 58.3058 122.292 56.7406C124.4 55.1754 125.454 54.1053 125.454 53.5304C125.454 53.3707 125.358 53.2908 125.167 53.2908ZM114.961 68.6232C112.501 68.6232 111.272 67.1219 111.272 64.1193C111.272 62.2347 112.086 60.2383 113.715 58.1301C115.376 55.9899 117.325 54.2491 119.561 52.9075C121.797 51.534 123.777 50.8472 125.502 50.8472C126.269 50.8472 126.971 51.1507 127.61 51.7576C128.281 52.3645 128.616 52.9554 128.616 53.5304C128.616 54.5845 127.866 55.7823 126.365 57.1239C124.863 58.4335 123.282 59.5036 121.621 60.3341C119.992 61.1327 118.906 61.532 118.363 61.532C117.852 61.532 117.469 61.2924 117.213 60.8133C117.085 60.7174 116.91 60.6695 116.686 60.6695C116.462 60.6695 116.095 61.1007 115.584 61.9632C115.073 62.7937 114.817 63.4805 114.817 64.0235C114.817 64.5346 115.009 64.854 115.392 64.9818C117.82 64.9818 120.455 64.279 123.298 62.8735C126.141 61.4361 130.07 58.9287 135.085 55.3511C135.436 55.0956 135.963 54.7123 136.666 54.2012C137.401 53.6901 137.832 53.3866 137.96 53.2908C138.247 53.5144 138.391 53.7859 138.391 54.1053C138.391 54.4248 138.247 54.7123 137.96 54.9678C136.362 56.5649 134.286 58.3537 131.731 60.3341C129.207 62.3146 126.301 64.1992 123.011 65.9879C119.72 67.7448 117.037 68.6232 114.961 68.6232Z" fill="#C7C7C7"/>
<path d="M129.96 58.8009C131.717 57.5871 133.554 56.2774 135.47 54.872C134.448 54.1692 133.793 53.4825 133.506 52.8117C133.41 52.5881 133.362 52.4284 133.362 52.3325C133.362 51.6937 133.57 51.2784 133.985 51.0868C134.4 50.8632 135.071 50.7514 135.997 50.7514C136.349 50.7514 137.387 51.1826 139.112 52.0451C140.837 52.9075 141.923 53.3387 142.37 53.3387C142.849 53.3387 143.504 53.211 144.334 52.9554C145.165 52.6679 145.82 52.5242 146.299 52.5242C146.81 52.5242 147.177 52.636 147.401 52.8596C148.199 53.9137 148.599 54.5525 148.599 54.7761C148.599 54.9997 148.487 55.1914 148.263 55.3511C148.072 55.4789 147.417 55.9261 146.299 56.6927C145.213 57.4593 144.143 58.2419 143.089 59.0405C142.035 59.839 141.044 60.7334 140.118 61.7236C139.192 62.7138 138.728 63.5124 138.728 64.1193C138.728 64.2151 138.808 64.263 138.968 64.263C140.693 64.263 146.506 60.7653 156.409 53.7699C156.632 53.7699 156.744 53.9776 156.744 54.3928C156.744 54.7761 155.482 56.1497 152.959 58.5134C150.435 60.8452 147.577 63.1451 144.382 65.413C141.22 67.6489 138.92 68.7669 137.483 68.7669C135.247 68.7669 134.129 67.6489 134.129 65.413C134.129 64.1992 134.528 63.0333 135.327 61.9153C136.157 60.7653 137.882 59.2321 140.501 57.3156C139.958 57.3156 139.224 57.1878 138.297 56.9323C137.371 56.6448 136.78 56.3094 136.524 55.9261C135.694 56.6607 134.257 57.8905 132.212 59.6154C131.733 59.9668 131.11 60.1425 130.344 60.1425C129.577 60.1425 129.194 60.0307 129.194 59.8071C129.194 59.5515 129.449 59.2161 129.96 58.8009Z" fill="#C7C7C7"/>
<path d="M162.281 54.9028C161.37 54.9028 160.59 54.7538 159.943 54.4556C159.296 54.166 158.733 53.8296 158.256 53.4463L159.266 51.6192C159.555 51.9258 159.879 52.1686 160.237 52.3474C160.603 52.5178 160.965 52.6413 161.323 52.718C161.689 52.7861 162.009 52.8202 162.281 52.8202C162.809 52.8202 163.244 52.6967 163.584 52.4497C163.934 52.1941 164.108 51.8704 164.108 51.4786C164.108 51.1975 164.01 50.9462 163.814 50.7248C163.627 50.5033 163.367 50.3329 163.035 50.2137C162.703 50.0859 162.324 50.022 161.898 50.022H161.719C161.574 50.022 161.425 50.0263 161.272 50.0348C161.127 50.0433 160.982 50.0561 160.837 50.0731L160.799 49.1276L160.71 48.0544C161.749 48.0118 162.545 47.8542 163.099 47.5816C163.653 47.3005 163.929 46.93 163.929 46.47C163.929 46.223 163.772 46.0186 163.457 45.8567C163.15 45.6864 162.754 45.6012 162.268 45.6012C161.382 45.6012 160.501 45.9206 159.623 46.5595L158.576 44.7196C158.951 44.447 159.355 44.2255 159.79 44.0552C160.224 43.8763 160.658 43.7443 161.093 43.6591C161.527 43.5739 161.928 43.5313 162.294 43.5313C163.043 43.5313 163.695 43.6506 164.249 43.8891C164.802 44.1191 165.233 44.447 165.539 44.8729C165.846 45.2988 165.999 45.8014 165.999 46.3806C165.999 47.045 165.854 47.5816 165.565 47.9905C165.284 48.3994 164.896 48.7188 164.402 48.9488C164.964 49.1873 165.42 49.528 165.769 49.9709C166.127 50.4139 166.306 50.9377 166.306 51.5425C166.306 52.0621 166.195 52.5306 165.974 52.948C165.752 53.3568 165.45 53.7061 165.066 53.9957C164.692 54.2938 164.262 54.5195 163.776 54.6729C163.299 54.8262 162.801 54.9028 162.281 54.9028Z" fill="#C7C7C7"/>
<path d="M168.474 54.8901C168.389 54.5579 168.295 54.2171 168.193 53.8679C168.099 53.5187 168.014 53.212 167.937 52.948C168.883 52.4198 169.705 51.8491 170.403 51.2358C171.11 50.6226 171.69 50.0135 172.141 49.4087C172.601 48.804 172.942 48.2546 173.163 47.7605C173.393 47.2665 173.508 46.8789 173.508 46.5978C173.508 46.2741 173.397 46.0228 173.176 45.844C172.963 45.6566 172.673 45.5629 172.307 45.5629C171.805 45.5629 171.294 45.7417 170.774 46.0995C170.263 46.4573 169.786 46.9641 169.343 47.62L168.001 46.0101C168.385 45.5501 168.789 45.137 169.215 44.7707C169.65 44.4044 170.114 44.1148 170.608 43.9019C171.102 43.6804 171.63 43.5697 172.192 43.5697C172.805 43.5697 173.368 43.6761 173.879 43.8891C174.39 44.102 174.799 44.4215 175.105 44.8474C175.412 45.2733 175.565 45.8014 175.565 46.4317C175.565 47.028 175.412 47.6753 175.105 48.3738C174.799 49.0638 174.373 49.758 173.828 50.4565C173.282 51.1464 172.661 51.7895 171.962 52.3858C172.243 52.3773 172.529 52.373 172.818 52.373C173.38 52.373 173.896 52.4071 174.364 52.4752C174.833 52.5348 175.318 52.6285 175.821 52.7563L175.399 54.724C174.982 54.6217 174.539 54.5366 174.07 54.4684C173.602 54.4003 173.065 54.3662 172.46 54.3662C171.745 54.3662 171.034 54.4045 170.327 54.4812C169.62 54.5664 169.002 54.7027 168.474 54.8901Z" fill="#C7C7C7"/>
</g>
<defs>
<clipPath id="clip0_190_86">
<rect width="148" height="34.0719" fill="white" transform="translate(28.6667 35.374)"/>
</clipPath>
</defs>
</svg>
