<svg width="149" height="24" viewBox="0 0 149 24" fill="none" xmlns="http://www.w3.org/2000/svg">
<path d="M1.43466 4.45455H4.65909L8.97727 14.9943H9.14773L13.4659 4.45455H16.6903V19H14.1619V9.0071H14.027L10.0071 18.9574H8.1179L4.09801 8.9858H3.96307V19H1.43466V4.45455ZM24.2045 19.2131C23.1392 19.2131 22.2159 18.9787 21.4347 18.5099C20.6534 18.0412 20.0473 17.3854 19.6165 16.5426C19.1903 15.6998 18.9773 14.715 18.9773 13.5881C18.9773 12.4612 19.1903 11.474 19.6165 10.6264C20.0473 9.77888 20.6534 9.12074 21.4347 8.65199C22.2159 8.18324 23.1392 7.94886 24.2045 7.94886C25.2699 7.94886 26.1932 8.18324 26.9744 8.65199C27.7557 9.12074 28.3594 9.77888 28.7855 10.6264C29.2164 11.474 29.4318 12.4612 29.4318 13.5881C29.4318 14.715 29.2164 15.6998 28.7855 16.5426C28.3594 17.3854 27.7557 18.0412 26.9744 18.5099C26.1932 18.9787 25.2699 19.2131 24.2045 19.2131ZM24.2188 17.1534C24.7964 17.1534 25.2794 16.9948 25.6676 16.6776C26.0559 16.3556 26.3447 15.9247 26.5341 15.3849C26.7282 14.8452 26.8253 14.2438 26.8253 13.581C26.8253 12.9134 26.7282 12.3097 26.5341 11.7699C26.3447 11.2254 26.0559 10.7921 25.6676 10.4702C25.2794 10.1482 24.7964 9.98722 24.2188 9.98722C23.6269 9.98722 23.1345 10.1482 22.7415 10.4702C22.3532 10.7921 22.062 11.2254 21.8679 11.7699C21.6785 12.3097 21.5838 12.9134 21.5838 13.581C21.5838 14.2438 21.6785 14.8452 21.8679 15.3849C22.062 15.9247 22.3532 16.3556 22.7415 16.6776C23.1345 16.9948 23.6269 17.1534 24.2188 17.1534ZM34.185 12.608V19H31.614V8.09091H34.0714V9.9446H34.1992C34.4502 9.33381 34.8503 8.84848 35.3995 8.48864C35.9535 8.12879 36.6377 7.94886 37.4521 7.94886C38.2049 7.94886 38.8607 8.10985 39.4194 8.43182C39.9828 8.75379 40.4184 9.22017 40.7262 9.83097C41.0387 10.4418 41.1926 11.1828 41.1879 12.054V19H38.6168V12.4517C38.6168 11.7225 38.4274 11.152 38.0487 10.7401C37.6746 10.3281 37.1561 10.1222 36.4933 10.1222C36.0434 10.1222 35.6433 10.2216 35.293 10.4205C34.9473 10.6146 34.6751 10.8963 34.4762 11.2656C34.2821 11.6349 34.185 12.0824 34.185 12.608ZM46.3725 12.608V19H43.8015V8.09091H46.2589V9.9446H46.3867C46.6377 9.33381 47.0378 8.84848 47.587 8.48864C48.141 8.12879 48.8252 7.94886 49.6396 7.94886C50.3924 7.94886 51.0482 8.10985 51.6069 8.43182C52.1703 8.75379 52.6059 9.22017 52.9137 9.83097C53.2262 10.4418 53.3801 11.1828 53.3754 12.054V19H50.8043V12.4517C50.8043 11.7225 50.6149 11.152 50.2362 10.7401C49.8621 10.3281 49.3436 10.1222 48.6808 10.1222C48.2309 10.1222 47.8308 10.2216 47.4805 10.4205C47.1348 10.6146 46.8626 10.8963 46.6637 11.2656C46.4696 11.6349 46.3725 12.0824 46.3725 12.608ZM55.989 19V8.09091H58.56V19H55.989ZM57.2816 6.54261C56.8744 6.54261 56.524 6.40767 56.2305 6.13778C55.9369 5.86316 55.7901 5.53409 55.7901 5.15057C55.7901 4.76231 55.9369 4.43324 56.2305 4.16335C56.524 3.88873 56.8744 3.75142 57.2816 3.75142C57.6935 3.75142 58.0439 3.88873 58.3327 4.16335C58.6263 4.43324 58.7731 4.76231 58.7731 5.15057C58.7731 5.53409 58.6263 5.86316 58.3327 6.13778C58.0439 6.40767 57.6935 6.54261 57.2816 6.54261ZM66.6513 8.09091V10.0795H60.38V8.09091H66.6513ZM61.9283 5.47727H64.4993V15.7188C64.4993 16.0644 64.5514 16.3295 64.6555 16.5142C64.7644 16.6941 64.9065 16.8172 65.0817 16.8835C65.2569 16.9498 65.451 16.983 65.6641 16.983C65.825 16.983 65.9718 16.9711 66.1044 16.9474C66.2417 16.9238 66.3459 16.9025 66.4169 16.8835L66.8501 18.8935C66.7128 18.9408 66.5163 18.9929 66.2607 19.0497C66.0097 19.1065 65.7019 19.1397 65.3374 19.1491C64.6934 19.1681 64.1134 19.071 63.5973 18.858C63.0812 18.6402 62.6716 18.304 62.3686 17.8494C62.0703 17.3949 61.9235 16.8267 61.9283 16.1449V5.47727ZM73.5138 19.2131C72.4201 19.2131 71.4755 18.9858 70.68 18.5312C69.8893 18.072 69.2809 17.4233 68.8548 16.5852C68.4286 15.7424 68.2156 14.7505 68.2156 13.6094C68.2156 12.4872 68.4286 11.5024 68.8548 10.6548C69.2856 9.80256 69.887 9.13968 70.6587 8.66619C71.4305 8.18797 72.3372 7.94886 73.3789 7.94886C74.0513 7.94886 74.6857 8.05777 75.2823 8.27557C75.8836 8.48864 76.4139 8.82008 76.8732 9.26989C77.3372 9.7197 77.7018 10.2926 77.967 10.9886C78.2321 11.6799 78.3647 12.5038 78.3647 13.4602V14.2486H69.4229V12.5156H75.9002C75.8955 12.0232 75.7889 11.5852 75.5806 11.2017C75.3723 10.8134 75.0811 10.508 74.707 10.2855C74.3377 10.063 73.9068 9.9517 73.4144 9.9517C72.8888 9.9517 72.4272 10.0795 72.0295 10.3352C71.6317 10.5862 71.3216 10.9176 71.0991 11.3295C70.8813 11.7367 70.77 12.1842 70.7653 12.6719V14.1847C70.7653 14.8191 70.8813 15.3636 71.1133 15.8182C71.3453 16.268 71.6696 16.6136 72.0863 16.8551C72.503 17.0919 72.9906 17.2102 73.5494 17.2102C73.9234 17.2102 74.262 17.1581 74.565 17.054C74.868 16.9451 75.1308 16.7865 75.3533 16.5781C75.5759 16.3698 75.744 16.1117 75.8576 15.804L78.2582 16.0739C78.1067 16.7083 77.8178 17.2623 77.3917 17.7358C76.9703 18.2045 76.4305 18.5691 75.7724 18.8295C75.1142 19.0852 74.3614 19.2131 73.5138 19.2131Z" fill="white"/>
<path d="M95.3395 8.45312C95.2732 7.83286 94.9938 7.34991 94.5014 7.00426C94.0137 6.65862 93.3793 6.4858 92.598 6.4858C92.0488 6.4858 91.5777 6.56866 91.1847 6.73438C90.7917 6.90009 90.491 7.125 90.2827 7.40909C90.0743 7.69318 89.9678 8.01752 89.9631 8.3821C89.9631 8.68513 90.0317 8.94792 90.169 9.17045C90.3111 9.39299 90.5028 9.58239 90.7443 9.73864C90.9858 9.89015 91.2533 10.018 91.5469 10.1222C91.8404 10.2263 92.1364 10.3139 92.4347 10.3849L93.7983 10.7259C94.3475 10.8537 94.8755 11.0265 95.3821 11.2443C95.8935 11.4621 96.3504 11.7367 96.7528 12.0682C97.16 12.3996 97.482 12.7997 97.7188 13.2685C97.9555 13.7372 98.0739 14.2865 98.0739 14.9162C98.0739 15.7685 97.8561 16.5189 97.4205 17.1676C96.9848 17.8116 96.3551 18.3158 95.5312 18.6804C94.7121 19.0402 93.7202 19.2202 92.5554 19.2202C91.4238 19.2202 90.4413 19.045 89.608 18.6946C88.7794 18.3442 88.1307 17.8329 87.6619 17.1605C87.1979 16.4882 86.947 15.669 86.9091 14.7031H89.5014C89.5393 15.2098 89.6955 15.6312 89.9702 15.9673C90.2448 16.3035 90.6023 16.5545 91.0426 16.7202C91.4877 16.8859 91.9848 16.9688 92.5341 16.9688C93.107 16.9688 93.6089 16.8835 94.0398 16.7131C94.4754 16.5379 94.8163 16.2964 95.0625 15.9886C95.3087 15.6761 95.4342 15.3116 95.4389 14.8949C95.4342 14.5161 95.3229 14.2036 95.1051 13.9574C94.8873 13.7064 94.5819 13.4981 94.1889 13.3324C93.8007 13.1619 93.3461 13.0104 92.8253 12.8778L91.1705 12.4517C89.9725 12.1439 89.0256 11.6776 88.3295 11.0526C87.6383 10.4228 87.2926 9.58712 87.2926 8.54545C87.2926 7.68845 87.5246 6.93797 87.9886 6.29403C88.4574 5.65009 89.0942 5.15057 89.8991 4.79545C90.7041 4.43561 91.6155 4.25568 92.6335 4.25568C93.6657 4.25568 94.5701 4.43561 95.3466 4.79545C96.1278 5.15057 96.741 5.64536 97.1861 6.27983C97.6312 6.90956 97.8608 7.634 97.875 8.45312H95.3395ZM105.757 8.09091V10.0795H99.4854V8.09091H105.757ZM101.034 5.47727H103.605V15.7188C103.605 16.0644 103.657 16.3295 103.761 16.5142C103.87 16.6941 104.012 16.8172 104.187 16.8835C104.362 16.9498 104.556 16.983 104.77 16.983C104.931 16.983 105.077 16.9711 105.21 16.9474C105.347 16.9238 105.451 16.9025 105.522 16.8835L105.956 18.8935C105.818 18.9408 105.622 18.9929 105.366 19.0497C105.115 19.1065 104.807 19.1397 104.443 19.1491C103.799 19.1681 103.219 19.071 102.703 18.858C102.187 18.6402 101.777 18.304 101.474 17.8494C101.176 17.3949 101.029 16.8267 101.034 16.1449V5.47727ZM114.86 14.4119V8.09091H117.431V19H114.938V17.0611H114.825C114.578 17.6719 114.174 18.1714 113.61 18.5597C113.051 18.9479 112.362 19.142 111.543 19.142C110.828 19.142 110.196 18.9834 109.647 18.6662C109.103 18.3442 108.676 17.8778 108.369 17.267C108.061 16.6515 107.907 15.9081 107.907 15.0369V8.09091H110.478V14.6392C110.478 15.3305 110.667 15.8797 111.046 16.2869C111.425 16.6941 111.922 16.8977 112.538 16.8977C112.916 16.8977 113.283 16.8054 113.638 16.6207C113.994 16.4361 114.285 16.1615 114.512 15.7969C114.744 15.4276 114.86 14.9659 114.86 14.4119ZM124.123 19.1918C123.266 19.1918 122.499 18.9716 121.822 18.5312C121.145 18.0909 120.61 17.4517 120.217 16.6136C119.824 15.7756 119.627 14.7576 119.627 13.5597C119.627 12.3475 119.826 11.3248 120.224 10.4915C120.627 9.65341 121.169 9.02131 121.85 8.59517C122.532 8.1643 123.292 7.94886 124.13 7.94886C124.77 7.94886 125.295 8.05777 125.707 8.27557C126.119 8.48864 126.446 8.74669 126.687 9.04972C126.929 9.34801 127.116 9.62973 127.248 9.89489H127.355V4.45455H129.933V19H127.404V17.2812H127.248C127.116 17.5464 126.924 17.8281 126.673 18.1264C126.422 18.42 126.091 18.6709 125.679 18.8793C125.267 19.0876 124.748 19.1918 124.123 19.1918ZM124.841 17.0824C125.385 17.0824 125.849 16.9356 126.233 16.642C126.616 16.3437 126.907 15.9295 127.106 15.3991C127.305 14.8688 127.404 14.2509 127.404 13.5455C127.404 12.84 127.305 12.2268 127.106 11.706C126.912 11.1851 126.623 10.7803 126.24 10.4915C125.861 10.2027 125.395 10.0582 124.841 10.0582C124.268 10.0582 123.789 10.2074 123.406 10.5057C123.022 10.804 122.734 11.2159 122.539 11.7415C122.345 12.267 122.248 12.8684 122.248 13.5455C122.248 14.2273 122.345 14.8357 122.539 15.3707C122.738 15.901 123.029 16.3201 123.413 16.6278C123.801 16.9309 124.277 17.0824 124.841 17.0824ZM132.673 19V8.09091H135.244V19H132.673ZM133.965 6.54261C133.558 6.54261 133.208 6.40767 132.914 6.13778C132.621 5.86316 132.474 5.53409 132.474 5.15057C132.474 4.76231 132.621 4.43324 132.914 4.16335C133.208 3.88873 133.558 3.75142 133.965 3.75142C134.377 3.75142 134.728 3.88873 135.016 4.16335C135.31 4.43324 135.457 4.76231 135.457 5.15057C135.457 5.53409 135.31 5.86316 135.016 6.13778C134.728 6.40767 134.377 6.54261 133.965 6.54261ZM142.646 19.2131C141.581 19.2131 140.657 18.9787 139.876 18.5099C139.095 18.0412 138.489 17.3854 138.058 16.5426C137.632 15.6998 137.419 14.715 137.419 13.5881C137.419 12.4612 137.632 11.474 138.058 10.6264C138.489 9.77888 139.095 9.12074 139.876 8.65199C140.657 8.18324 141.581 7.94886 142.646 7.94886C143.711 7.94886 144.635 8.18324 145.416 8.65199C146.197 9.12074 146.801 9.77888 147.227 10.6264C147.658 11.474 147.873 12.4612 147.873 13.5881C147.873 14.715 147.658 15.6998 147.227 16.5426C146.801 17.3854 146.197 18.0412 145.416 18.5099C144.635 18.9787 143.711 19.2131 142.646 19.2131ZM142.66 17.1534C143.238 17.1534 143.721 16.9948 144.109 16.6776C144.497 16.3556 144.786 15.9247 144.975 15.3849C145.17 14.8452 145.267 14.2438 145.267 13.581C145.267 12.9134 145.17 12.3097 144.975 11.7699C144.786 11.2254 144.497 10.7921 144.109 10.4702C143.721 10.1482 143.238 9.98722 142.66 9.98722C142.068 9.98722 141.576 10.1482 141.183 10.4702C140.795 10.7921 140.503 11.2254 140.309 11.7699C140.12 12.3097 140.025 12.9134 140.025 13.581C140.025 14.2438 140.12 14.8452 140.309 15.3849C140.503 15.9247 140.795 16.3556 141.183 16.6776C141.576 16.9948 142.068 17.1534 142.66 17.1534Z" fill="white"/>
</svg>
